<svg width="16" height="16" viewBox="0 0 16 16" fill="none" xmlns="http://www.w3.org/2000/svg">
<circle cx="8" cy="8" r="7.5" fill="#DC3545" stroke="black"/>
<rect x="7.59961" y="5.40039" width="3.5" height="5" fill="#FFD748"/>
<rect x="3.09961" y="5.90039" width="3.5" height="4" fill="white"/>
<rect x="11.0996" y="6.90039" width="1.5" height="2" fill="white"/>
<rect x="4.59961" y="10.4004" width="1.5" height="2" fill="white"/>
<rect x="5.09961" y="11.4004" width="2" height="2" fill="white"/>
<rect x="9.59961" y="4.90039" width="1.5" height="6" fill="#FFD748"/>
<path d="M7.09961 9.90039C8.59961 9.90039 11.0996 11.9004 11.0996 11.9004V3.90039C11.0996 3.90039 8.59961 5.90039 7.09961 5.90039M7.09961 9.90039V5.90039M7.09961 9.90039H4.59961C3.49511 9.90039 2.59961 9.45589 2.59961 7.90039C2.59961 6.34489 3.49511 5.90039 4.59961 5.90039H7.09961M4.09961 9.90039L5.59961 13.9004H7.59961L6.09961 9.90039M11.0996 9.40039C11.2966 9.40039 11.4916 9.36159 11.6736 9.28621C11.8556 9.21083 12.021 9.10034 12.1603 8.96105C12.2996 8.82176 12.41 8.6564 12.4854 8.47442C12.5608 8.29243 12.5996 8.09737 12.5996 7.90039C12.5996 7.70341 12.5608 7.50835 12.4854 7.32637C12.41 7.14438 12.2996 6.97902 12.1603 6.83973C12.021 6.70044 11.8556 6.58995 11.6736 6.51457C11.4916 6.43919 11.2966 6.40039 11.0996 6.40039M7.09961 11.9004C7.59961 11.9004 8.59961 11.4004 8.59961 10.4004" stroke="#373A3C"/>
</svg>
